<svg width="35" height="35" viewBox="0 0 35 35" fill="none" xmlns="http://www.w3.org/2000/svg">
<g id="Icons">
<path id="Vector" d="M22.4583 4.375C22.1114 4.99638 21.8022 5.6381 21.5324 6.29667C18.8819 5.87749 16.1819 5.87749 13.5313 6.29667C13.2615 5.6381 12.9523 4.99638 12.6054 4.375C10.1086 4.80161 7.68138 5.56563 5.39039 6.64607C1.29364 12.5583 -0.564274 19.7361 0.149474 26.8935C2.81926 28.9005 5.81571 30.4312 9.00663 31.4182C9.73322 30.4584 10.3817 29.4419 10.9458 28.3784C9.9047 27.9946 8.90408 27.5089 7.95844 26.9284C8.2178 26.7559 8.46314 26.5631 8.69217 26.3519C11.4497 27.6802 14.4711 28.3699 17.5319 28.3699C20.5926 28.3699 23.614 27.6802 26.3715 26.3519C26.6161 26.5616 26.8607 26.7537 27.1053 26.9284C26.1545 27.5043 25.1549 27.9954 24.118 28.3959C24.6586 29.4834 25.2898 30.5236 26.0047 31.5055C29.1916 30.522 32.1829 28.9909 34.8444 26.9808C35.5753 19.8221 33.7158 12.6385 29.6034 6.73341C27.3382 5.63062 24.935 4.83737 22.4583 4.375ZM11.7319 22.8056C10.8577 22.7428 10.0418 22.3438 9.45546 21.6924C8.86914 21.0409 8.558 20.1876 8.58736 19.3116C8.55357 18.4345 8.86318 17.5788 9.45038 16.9263C10.0376 16.2739 10.8561 15.8762 11.7319 15.8177C12.6077 15.8762 13.4262 16.2739 14.0134 16.9263C14.6006 17.5788 14.9102 18.4345 14.8765 19.3116C14.9102 20.1888 14.6006 21.0445 14.0134 21.6969C13.4262 22.3494 12.6077 22.7471 11.7319 22.8056ZM23.3318 22.8056C22.4576 22.7428 21.6417 22.3438 21.0554 21.6924C20.469 21.0409 20.1579 20.1876 20.1873 19.3116C20.1535 18.4345 20.4631 17.5788 21.0503 16.9263C21.6375 16.2739 22.456 15.8762 23.3318 15.8177C24.2093 15.8718 25.0304 16.2682 25.6185 16.9217C26.2066 17.5751 26.5147 18.4333 26.4764 19.3116C26.5147 20.1899 26.2066 21.0481 25.6185 21.7016C25.0304 22.355 24.2093 22.7515 23.3318 22.8056Z" fill="#0B0B0B"/>
</g>
</svg>
