<svg width="36" height="35" viewBox="0 0 36 35" fill="none" xmlns="http://www.w3.org/2000/svg">
<g id="Icons Here">
<path id="Vector" d="M12.1754 2.91699H24.4254C29.092 2.91699 32.8837 6.70866 32.8837 11.3753V23.6253C32.8837 25.8686 31.9926 28.02 30.4063 29.6063C28.8201 31.1925 26.6687 32.0837 24.4254 32.0837H12.1754C7.50871 32.0837 3.71704 28.292 3.71704 23.6253V11.3753C3.71704 9.13204 4.60818 6.98063 6.19443 5.39438C7.78067 3.80814 9.93209 2.91699 12.1754 2.91699ZM11.8837 5.83366C10.4913 5.83366 9.15596 6.38678 8.1714 7.37135C7.18683 8.35591 6.63371 9.69127 6.63371 11.0837V23.917C6.63371 26.8191 8.98162 29.167 11.8837 29.167H24.717C26.1094 29.167 27.4448 28.6139 28.4294 27.6293C29.4139 26.6447 29.967 25.3094 29.967 23.917V11.0837C29.967 8.18158 27.6191 5.83366 24.717 5.83366H11.8837ZM25.9566 8.02116C26.4401 8.02116 26.9038 8.21322 27.2456 8.55508C27.5875 8.89694 27.7795 9.36061 27.7795 9.84408C27.7795 10.3275 27.5875 10.7912 27.2456 11.1331C26.9038 11.4749 26.4401 11.667 25.9566 11.667C25.4732 11.667 25.0095 11.4749 24.6676 11.1331C24.3258 10.7912 24.1337 10.3275 24.1337 9.84408C24.1337 9.36061 24.3258 8.89694 24.6676 8.55508C25.0095 8.21322 25.4732 8.02116 25.9566 8.02116ZM18.3004 10.2087C20.2342 10.2087 22.0889 10.9769 23.4564 12.3443C24.8238 13.7118 25.592 15.5665 25.592 17.5003C25.592 19.4342 24.8238 21.2889 23.4564 22.6563C22.0889 24.0238 20.2342 24.792 18.3004 24.792C16.3665 24.792 14.5118 24.0238 13.1444 22.6563C11.7769 21.2889 11.0087 19.4342 11.0087 17.5003C11.0087 15.5665 11.7769 13.7118 13.1444 12.3443C14.5118 10.9769 16.3665 10.2087 18.3004 10.2087ZM18.3004 13.1253C17.1401 13.1253 16.0273 13.5863 15.2068 14.4067C14.3863 15.2272 13.9254 16.34 13.9254 17.5003C13.9254 18.6606 14.3863 19.7734 15.2068 20.5939C16.0273 21.4144 17.1401 21.8753 18.3004 21.8753C19.4607 21.8753 20.5735 21.4144 21.394 20.5939C22.2144 19.7734 22.6754 18.6606 22.6754 17.5003C22.6754 16.34 22.2144 15.2272 21.394 14.4067C20.5735 13.5863 19.4607 13.1253 18.3004 13.1253Z" fill="#0B0B0B"/>
</g>
</svg>
