<svg width="31" height="31" viewBox="0 0 31 31" fill="none" xmlns="http://www.w3.org/2000/svg">
<g id="Icons Here" clip-path="url(#clip0_285_1804)">
<path id="Vector" d="M0.000732422 2.30566C0.000732422 1.08713 1.01328 0.0996094 2.26261 0.0996094H28.5389C29.7882 0.0996094 30.8007 1.08713 30.8007 2.30566V28.6936C30.8007 29.9121 29.7882 30.8996 28.5389 30.8996H2.26261C1.01328 30.8996 0.000732422 29.9121 0.000732422 28.6936V2.30566ZM9.51601 25.8831V11.9749H4.89408V25.8831H9.51601ZM7.20601 10.075C8.81723 10.075 9.82016 9.00851 9.82016 7.67256C9.79128 6.30773 8.81916 5.27016 7.23681 5.27016C5.65446 5.27016 4.62073 6.30966 4.62073 7.67256C4.62073 9.00851 5.62366 10.075 7.17521 10.075H7.20601ZM16.6539 25.8831V18.1157C16.6539 17.6999 16.6847 17.2841 16.8079 16.9876C17.1409 16.158 17.9013 15.2975 19.1795 15.2975C20.8523 15.2975 21.5203 16.5718 21.5203 18.4429V25.8831H26.1422V17.9059C26.1422 13.6324 23.863 11.6458 20.8215 11.6458C18.3691 11.6458 17.2699 12.9933 16.6539 13.9423V13.9904H16.6231C16.6333 13.9743 16.6436 13.9583 16.6539 13.9423V11.9749H12.0339C12.0917 13.2801 12.0339 25.8831 12.0339 25.8831H16.6539Z" fill="#0B0B0B"/>
</g>
<defs>
<clipPath id="clip0_285_1804">
<rect width="30.8" height="30.8" fill="white" transform="translate(0 0.0996094)"/>
</clipPath>
</defs>
</svg>
