<svg width="32" height="34" viewBox="0 0 32 34" fill="none" xmlns="http://www.w3.org/2000/svg">
<g id="Icon">
<path id="Vector" d="M0.913254 0.800443C0.521587 1.20019 0.294922 1.82257 0.294922 2.62857V31.3781C0.294922 32.1841 0.521587 32.8064 0.913254 33.2062L1.00992 33.2939L17.5332 17.1902V16.8099L1.00992 0.706196L0.913254 0.800443Z" fill="url(#paint0_linear_286_17)"/>
<path id="Vector_2" d="M23.0349 22.5615L17.5332 17.1909V16.8106L23.0415 11.44L23.1649 11.5099L29.6882 15.1288C31.5499 16.1558 31.5499 17.8458 29.6882 18.8793L23.1649 22.4916L23.0349 22.5615V22.5615Z" fill="url(#paint1_linear_286_17)"/>
<path id="Vector_3" d="M23.165 22.4912L17.5333 17.0003L0.91333 33.2065C1.53166 33.8402 2.54 33.9166 3.68666 33.2828L23.165 22.4912" fill="url(#paint2_linear_286_17)"/>
<path id="Vector_4" d="M23.165 11.5091L3.68666 0.717505C2.54 0.0902547 1.53166 0.166628 0.91333 0.800377L17.5333 17L23.165 11.5091Z" fill="url(#paint3_linear_286_17)"/>
</g>
<defs>
<linearGradient id="paint0_linear_286_17" x1="16.0662" y1="31.6775" x2="-5.74395" y2="9.30811" gradientUnits="userSpaceOnUse">
<stop stop-color="#00A0FF"/>
<stop offset="0.0066" stop-color="#00A1FF"/>
<stop offset="0.2601" stop-color="#00BEFF"/>
<stop offset="0.5122" stop-color="#00D2FF"/>
<stop offset="0.7604" stop-color="#00DFFF"/>
<stop offset="1" stop-color="#00E3FF"/>
</linearGradient>
<linearGradient id="paint1_linear_286_17" x1="32.1124" y1="16.999" x2="-0.150126" y2="16.999" gradientUnits="userSpaceOnUse">
<stop stop-color="#FFE000"/>
<stop offset="0.4087" stop-color="#FFBD00"/>
<stop offset="0.7754" stop-color="#FFA500"/>
<stop offset="1" stop-color="#FF9C00"/>
</linearGradient>
<linearGradient id="paint2_linear_286_17" x1="20.1027" y1="14.0154" x2="-9.47365" y2="-16.3193" gradientUnits="userSpaceOnUse">
<stop stop-color="#FF3A44"/>
<stop offset="1" stop-color="#C31162"/>
</linearGradient>
<linearGradient id="paint3_linear_286_17" x1="-3.27027" y1="42.7709" x2="9.93688" y2="29.2253" gradientUnits="userSpaceOnUse">
<stop stop-color="#32A071"/>
<stop offset="0.0685" stop-color="#2DA771"/>
<stop offset="0.4762" stop-color="#15CF74"/>
<stop offset="0.8009" stop-color="#06E775"/>
<stop offset="1" stop-color="#00F076"/>
</linearGradient>
</defs>
</svg>
